<svg xmlns="http://www.w3.org/2000/svg" width="158" height="91" viewBox="0 0 158 91"><g><g><g/><g><path fill="#73a9db" d="M0 5.5a5.5 5.5 0 1 1 11 0V91H0z"/></g><g><path fill="#e0ecf8" d="M21 38.5a5.5 5.5 0 1 1 11 0V91H21z"/></g><g><path fill="#e0ecf8" d="M42 23.5a5.5 5.5 0 1 1 11 0V91H42z"/></g><g><path fill="#73a9db" d="M63 15.5a5.5 5.5 0 1 1 11 0V91H63z"/></g><g><path fill="#e0ecf8" d="M84 38.5a5.5 5.5 0 1 1 11 0V91H84z"/></g><g><path fill="#73a9db" d="M105 15.5a5.5 5.5 0 1 1 11 0V91h-11z"/></g><g><path fill="#e0ecf8" d="M126 38.5a5.5 5.5 0 1 1 11 0V91h-11z"/></g><g><path fill="#73a9db" d="M147 23.5a5.5 5.5 0 1 1 11 0V91h-11z"/></g></g></g></svg>