<svg xmlns="http://www.w3.org/2000/svg" width="66" height="65" viewBox="0 0 66 65"><g><g><g/><g><g><path fill="#4a8cff" d="M49.457 11.64V4.133a.389.389 0 0 0-.021-.119.346.346 0 0 0-.07-.102l-.006-.005a.267.267 0 0 0-.102-.07.315.315 0 0 0-.123-.022H4.125a.386.386 0 0 0-.118.022.323.323 0 0 0-.113.07l-.01.01a.423.423 0 0 0-.06.097.29.29 0 0 0-.021.119v45.095c0 .043.01.086.027.118l.005.016a.38.38 0 0 0 .064.097c.033.032.07.054.108.07l.01.005c.033.011.07.022.108.022h8.615V15.772c0-.554.113-1.092.312-1.576.21-.506.515-.963.897-1.346l.021-.021a4.143 4.143 0 0 1 1.322-.877c.488-.2 1.02-.312 1.573-.312zM27.924 40.87a2.51 2.51 0 0 1-.177-3.54 2.494 2.494 0 0 1 3.534-.178l4.883 4.44 11.16-11.775a2.508 2.508 0 0 1 3.546-.091 2.517 2.517 0 0 1 .09 3.552l-13.448 14.18-.135-.103c-.311.15-.65.231-.993.247a2.48 2.48 0 0 1-1.767-.645zM61.87 11.64a4.148 4.148 0 0 1 2.916 1.216l.022.021a4.094 4.094 0 0 1 1.187 2.9v45.096c0 .56-.113 1.092-.312 1.576-.21.506-.515.964-.897 1.346a4.091 4.091 0 0 1-1.343.898 4.07 4.07 0 0 1-1.573.318H16.865a4.165 4.165 0 0 1-1.573-.312 4.148 4.148 0 0 1-2.24-2.244 4.087 4.087 0 0 1-.312-1.577V53.36H4.125a4.148 4.148 0 0 1-3.813-2.562A4.14 4.14 0 0 1 0 49.229V4.133c0-.56.113-1.093.312-1.577.209-.506.515-.963.897-1.345A4.091 4.091 0 0 1 2.55.312C3.04.113 3.571 0 4.125 0h45.004a4.125 4.125 0 0 1 2.917 1.21 4.115 4.115 0 0 1 1.214 2.923v7.507zm-45.005 3.804c-.043 0-.08.01-.118.022a.258.258 0 0 0-.107.075l-.006.005a.268.268 0 0 0-.07.103.289.289 0 0 0-.021.118v45.095c0 .043.01.086.022.118a.354.354 0 0 0 .075.108l.01.01a.261.261 0 0 0 .097.06.29.29 0 0 0 .118.021H61.87c.043 0 .086-.01.118-.021l.01-.006a.249.249 0 0 0 .097-.07.43.43 0 0 0 .07-.102l.005-.01a.356.356 0 0 0 .016-.114V15.762c0-.043-.01-.081-.021-.119l-.005-.01a.352.352 0 0 0-.172-.167.35.35 0 0 0-.113-.022z"/></g></g></g></g></svg>