<svg xmlns="http://www.w3.org/2000/svg" width="61" height="73" viewBox="0 0 61 73"><g><g><g/><g><path fill="#4a8cff" d="M28.885 39.547a10.461 10.461 0 0 1-3.768-2.227l-.795-.696c-1.884-1.627-3.433-2.934-3.517-6.38a.998.998 0 0 0-.646-.913 1.017 1.017 0 0 0-.687-.014c-.194.06-.396.092-.598.095a.698.698 0 0 1-.335-.083 2.153 2.153 0 0 1-.748-1.319 8.812 8.812 0 0 1-.161-2.97c.197-.38.76-.244 1.543.03l.723.261a1.03 1.03 0 0 0 1.03-.195 1.016 1.016 0 0 0 .316-.993 6.817 6.817 0 0 1 .084-3.79 5.484 5.484 0 0 1 2.176-2.686 11.567 11.567 0 0 1 5.885-2.043 13.382 13.382 0 0 0 7.458-2.852 7.433 7.433 0 0 1 3.271 3.28c.903 1.871 1.232 4.633.502 8.881a1.003 1.003 0 0 0 .45 1.044 1.02 1.02 0 0 0 1.171-.052c.368-.294.811-.48 1.28-.54a.74.74 0 0 1 .37.041.19.19 0 0 1 .072.107c.06.303.037.617-.065.909l-.993 2.816c-.078.172-.048.237-.078.261-.03.024-.024-.047-.191-.047a1.076 1.076 0 0 1-.275-.066 1.862 1.862 0 0 1-.377-.19 1.017 1.017 0 0 0-1.4.285 1.028 1.028 0 0 0-.161.636c.287 3.374-1.184 4.765-3.23 6.695l-.64.594c-.356.327-.733.631-1.13.91a8.353 8.353 0 0 1-4.784 1.39c-.59 0-1.18-.06-1.758-.179zm-1.657 21.625a4.589 4.589 0 0 0-1.357 3.25c0 .909.271 1.798.78 2.554a4.622 4.622 0 0 0 2.077 1.693 4.657 4.657 0 0 0 5.045-.996 4.57 4.57 0 0 0 1.003-5.011 4.605 4.605 0 0 0-1.705-2.064 4.651 4.651 0 0 0-5.843.574zm10.663-22.266l.036-.036.634-.594c2.153-2.032 3.774-3.564 3.9-6.82h.077a2.158 2.158 0 0 0 1.555-.386c.358-.313.611-.728.724-1.188l1.034-2.917a3.642 3.642 0 0 0 .048-2.08 2.116 2.116 0 0 0-1.053-1.265 2.671 2.671 0 0 0-1.47-.28 3.62 3.62 0 0 0-.491.072l.03-.243c6.267-5.626 2.924-18.363-5.239-18.791-6.883-8.673-16.033-3.368-23.987 6.404 4.186 1.26 3.277 7.92 3.588 11.757l.227.148c-.765.072-1.375.505-1.794 1.694a1.13 1.13 0 0 0-.066.243 10.98 10.98 0 0 0 .186 3.891 3.93 3.93 0 0 0 1.722 2.537c.394.222.839.34 1.292.345.37 3.44 2.027 4.919 4.024 6.624a30.17 30.17 0 0 1-1.513 3.938c-3.624 2.377-11.93 2.97-15.154 4.753C-2.596 51.583.58 61.612.472 69.928.645 71.812 1.704 72.84 3.779 73h2.273L3.588 54.423a2.22 2.22 0 0 1 .458-1.77 2.245 2.245 0 0 1 1.635-.838h25.225c-.472-3.006-8.3-5.905-8.582-8.174a.96.96 0 0 0 .21-.202 19.013 19.013 0 0 0 1.794-4.159 10.75 10.75 0 0 0 6.68 2.614 9.442 9.442 0 0 0 5.585-1.883l.282.415a33.65 33.65 0 0 0 2.392 3.238c-.168 2.578-6.973 2.608-7.733 8.127H55.72a2.26 2.26 0 0 1 1.661.837 2.228 2.228 0 0 1 .456 1.795L55.372 73h2.249c2.075-.16 3.133-1.218 3.313-3.072-.586-7.842 2.368-18.73-5.73-23.216-3.181-1.759-11.314-2.376-15.016-4.658-.622-.766-1.286-1.746-1.884-2.608l-.389-.558z"/></g></g></g></svg>