<svg xmlns="http://www.w3.org/2000/svg" width="82" height="82" viewBox="0 0 82 82"><g><g><g><g><path fill="#e5e5e4" d="M40.54.92c22.39 0 40.54 18.15 40.54 40.54S62.93 82 40.54 82 0 63.85 0 41.46 18.15.92 40.54.92z"/></g><g><path fill="#fff" d="M40.54 1.71c21.954 0 39.751 17.797 39.751 39.75 0 21.954-17.797 39.751-39.75 39.751C18.587 81.211.79 63.414.79 41.461.79 19.507 18.588 1.71 40.54 1.71z"/></g><g><path fill="#4a8cff" d="M40.542 5c20.192 0 36.562 16.37 36.562 36.562 0 20.192-16.37 36.562-36.562 36.562-20.193 0-36.562-16.37-36.562-36.562C3.98 21.369 20.35 5 40.542 5z"/></g><g><path fill="#fff" d="M16.69 30.003c0-.697.573-1.27 1.285-1.27h25.046c3.87-.015 7.043 3.112 7.058 6.997v17.182c0 .697-.573 1.27-1.285 1.27H23.75c-3.87.015-7.044-3.112-7.059-6.997V30.003zm34.983 6.703l10.34-7.554c.898-.743 1.594-.558 1.594.79v23.032c0 1.533-.851 1.347-1.594.79l-10.34-7.539z"/></g></g></g></g></svg>