<svg xmlns="http://www.w3.org/2000/svg" width="59" height="65" viewBox="0 0 59 65"><g><g><g><path fill="#4a8cff" d="M29.93 39.71a4.948 4.948 0 0 1 1.443-3.478 4.918 4.918 0 0 1 3.467-1.447h19.25a4.918 4.918 0 0 1 3.467 1.447A4.948 4.948 0 0 1 59 39.71v20.365a4.948 4.948 0 0 1-1.443 3.478A4.919 4.919 0 0 1 54.09 65H34.84a4.919 4.919 0 0 1-3.467-1.447 4.948 4.948 0 0 1-1.443-3.478zm1.445-23.936h10.332L31.375 6.067zM23.89 36.7v2.338H10.928a1.096 1.096 0 0 1-1.055-1.169 1.124 1.124 0 0 1 1.055-1.169zm.37 8.374v2.338H11.285a1.1 1.1 0 0 1-.994-.738 1.11 1.11 0 0 1-.06-.431 1.124 1.124 0 0 1 1.054-1.17zm-1.346-25.126a1.106 1.106 0 0 1 1.055 1.169 1.123 1.123 0 0 1-1.055 1.169H10.917a1.1 1.1 0 0 1-.994-.738 1.109 1.109 0 0 1-.06-.431 1.124 1.124 0 0 1 1.054-1.17zm-5.405-8.374a1.104 1.104 0 0 1 .992.738c.05.138.07.285.062.43a1.123 1.123 0 0 1-1.054 1.17h-6.593a1.092 1.092 0 0 1-.995-.737 1.104 1.104 0 0 1-.06-.432 1.124 1.124 0 0 1 1.055-1.17zM31.2 28.326a1.1 1.1 0 0 1 .995.738c.048.138.07.285.06.431a1.124 1.124 0 0 1-1.054 1.17H10.917a1.1 1.1 0 0 1-.994-.738 1.108 1.108 0 0 1-.06-.432 1.124 1.124 0 0 1 1.054-1.169zm16.266 2.26H44V19.238H29.656c-.46 0-.902-.184-1.227-.51a1.743 1.743 0 0 1-.509-1.23V3.47H3.454v52.368H23.94v3.465H3.096A3.089 3.089 0 0 1 0 56.203V3.1A3.108 3.108 0 0 1 .907.906 3.09 3.09 0 0 1 3.096 0h26.56a1.689 1.689 0 0 1 1.323.635l15.237 14.87a1.719 1.719 0 0 1 1.25 1.66zm2.268 20.29c1.002-.65.996-1.37 0-1.946l-8.919-5.962c-.817-.529-1.666-.211-1.645.857l.032 12.05c.068 1.159.727 1.476 1.703.937l8.818-5.935z"/></g></g></g></svg>