<svg xmlns="http://www.w3.org/2000/svg" width="49" height="67" viewBox="0 0 49 67"><g><g><path fill="#4a8cff" d="M6.866 44.767c1.701-2.623 5.35-3.991 8.616-5.218.807-.306 1.592-.594 2.305-.894a7.277 7.277 0 0 0 .928-1.598c.209-.49.362-1.009.466-1.554a10.996 10.996 0 0 1-1.674-1.221c-2.167-1.909-3.682-3.468-4.66-5.273-.993-1.832-1.404-3.86-1.35-6.685l.154-6.466c0-.093.017-.175.044-.256l-1.915-.655c-.275-6.2 3.238-9.918 7.58-11.788 1.585-.682-1.07-4.117 2.573-2.9C24.801 1.877 35.592 3.987 38.15 6.91c2.08 2.378 2.163 3.68 2.113 6.81-.016 1.015-.176 1.909-.664 2.236-.225.147-.494.202-.801.169v6.794c0 3.871-1.394 7.104-3.535 9.503a14.04 14.04 0 0 1-4.21 3.212c.094.496.226.976.39 1.429.192.528.44 1.035.73 1.515.626.278 1.246.53 1.866.78 3.052 1.243 6.153 2.503 7.755 5.403h5.544c1.02 0 1.85 1.01 1.613 2.241l-3.397 17.759c-.23 1.21-1.015 2.241-2.256 2.241H6.29c-1.24 0-1.986-1.036-2.255-2.241L.054 47.008c-.274-1.232.527-2.241 1.515-2.241zm15.016 11.052a2.699 2.699 0 0 0 2.705 2.688 2.699 2.699 0 0 0 2.706-2.688 2.699 2.699 0 0 0-2.706-2.688 2.699 2.699 0 0 0-2.705 2.688zm-1.274-19.607a9.195 9.195 0 0 1-.466 1.44 8.815 8.815 0 0 1-.928 1.657c.412.452.873.84 1.378 1.161 1.361.873 2.997 1.282 4.61 1.243 1.603-.038 3.167-.523 4.396-1.445a6.25 6.25 0 0 0 1.136-1.112 10.207 10.207 0 0 1-1.109-2.873c-1.569.556-3.155.834-4.708.812a12.076 12.076 0 0 1-4.309-.883zm-.164-1.778a10.1 10.1 0 0 0 1.553.655 10.39 10.39 0 0 0 3.062.458v.005c1.647 0 3.315-.37 4.874-1.074a12.528 12.528 0 0 0 4.177-3.059c1.904-2.132 3.14-5.016 3.14-8.49v-5.375a5.321 5.321 0 0 0-.22-1.407 3.2 3.2 0 0 0-.566-1.085c-.944-1.173-1.838-1.162-3.117-1.156h-.395c-5.055-.017-8.365-.18-11.054-.54-2.48-.333-4.424-.829-6.685-1.538-.214.475-.46.933-.752 1.385a11.276 11.276 0 0 1-1.29 1.636l-.148 7.514c-.049 2.54.313 4.345 1.17 5.937.872 1.614 2.288 3.06 4.319 4.853a9.727 9.727 0 0 0 1.712 1.205c.088.005.16.033.22.076zM31.36 20.182a1.66 1.66 0 0 1 1.663 1.652 1.66 1.66 0 0 1-1.663 1.652 1.66 1.66 0 0 1-1.663-1.652c0-.91.741-1.652 1.663-1.652zm-12.546 0a1.66 1.66 0 0 1 1.663 1.652 1.66 1.66 0 0 1-1.663 1.652 1.66 1.66 0 0 1-1.663-1.652c0-.91.746-1.652 1.663-1.652zm2.87 9.585a.762.762 0 0 1-.225-1.058.773.773 0 0 1 1.065-.223c.878.567 1.718.872 2.519.883.774.01 1.542-.262 2.3-.845a.768.768 0 0 1 1.08.136.757.757 0 0 1-.136 1.074c-1.043.807-2.135 1.178-3.266 1.167-1.103-.022-2.217-.414-3.337-1.134zm18.276 15c-1.482-1.947-4.012-2.977-6.503-3.991-.522-.213-1.038-.426-1.537-.638a6.879 6.879 0 0 1-1.493 1.46c-1.378.993-3.156 1.566-4.994 1.653-1.828.087-3.722-.3-5.335-1.227a8.098 8.098 0 0 1-2.162-1.777c-.61.245-1.252.485-1.91.73-2.64.993-5.544 2.083-7.201 3.79z"/></g></g></svg>