<svg xmlns="http://www.w3.org/2000/svg" width="53" height="53" viewBox="0 0 53 53"><g><g><path fill="#4a8cff" d="M1.846 52.076a.925.925 0 0 1-1.576.654.925.925 0 0 1-.27-.654c0-4.603 1.682-7.139 3.852-8.585 2.17-1.447 4.623-1.728 6.47-1.905a11.967 11.967 0 0 0 5.412-1.783 8.703 8.703 0 0 0 3.477-4.95c-1.786-1.542-3.252-2.893-3.593-6.02a2.443 2.443 0 0 1-1.178-.328 3.637 3.637 0 0 1-1.565-2.371 10.133 10.133 0 0 1-.169-3.568c.01-.08.03-.158.06-.233.385-1.058.937-1.481 1.653-1.542l-.186-.125c-.28-3.524.544-9.635-3.278-10.797 7.208-8.944 15.54-13.807 21.8-5.852 7.44.393 10.48 12.093 4.778 17.24l-.026.225c.142-.033.286-.055.431-.065.463-.044.928.044 1.342.255a1.935 1.935 0 0 1 .953 1.162c.174.625.16 1.287-.039 1.905a55.534 55.534 0 0 1-.962 2.733c-.1.4-.32.76-.63 1.033l-.077.056c-.396.255-.87.36-1.337.298h-.048c-.099 2.617-1.246 4.02-2.846 5.584.707 2.496 1.872 4.03 3.265 5.005 1.475 1.028 3.252 1.469 5.033 1.767 1.782.298 4.197.717 6.332 2.215 2.135 1.499 3.934 4.107 4.076 8.638a.925.925 0 0 1-1.533.668.925.925 0 0 1-.309-.608c-.12-3.818-1.535-5.947-3.286-7.178-1.752-1.23-4.016-1.64-5.582-1.904-2.01-.337-4.028-.864-5.788-2.073a9.888 9.888 0 0 1-3.61-4.876l-.043.039a9.954 9.954 0 0 1-3.52 1.87 7.962 7.962 0 0 1-3.709.354 9.108 9.108 0 0 1-4.96-2.004 10.23 10.23 0 0 1-3.882 4.971 13.79 13.79 0 0 1-6.241 2.086c-1.652.177-3.882.432-5.642 1.61-1.76 1.18-3.019 3.197-3.019 7.045zM25.827 36.53c.22.021.431.03.669.03.745 0 1.486-.102 2.204-.302a8.219 8.219 0 0 0 3.019-1.926l.604-.575c1.859-1.77 3.2-3.049 2.941-6.145a.969.969 0 0 1 .151-.588.924.924 0 0 1 1.294-.259c.106.07.219.13.337.177.081.032.167.05.254.056.134 0 .147.056.168.052 0 0 0-.065.048-.168l.931-2.652c.093-.27.113-.558.06-.838a.181.181 0 0 0-.068-.1.684.684 0 0 0-.337-.034 2.302 2.302 0 0 0-1.19.497.923.923 0 0 1-1.466-.894c.668-3.887.366-6.43-.458-8.15a6.803 6.803 0 0 0-2.976-3.023c-2.812 2.134-4.805 2.393-6.789 2.639-1.617.199-3.23.397-5.357 1.87a5.065 5.065 0 0 0-1.984 2.466 6.308 6.308 0 0 0-.077 3.481.928.928 0 0 1-1.22 1.067l-.665-.242c-.712-.25-1.22-.376-1.402-.03a8.11 8.11 0 0 0 .147 2.75c.07.48.314.917.686 1.227.094.05.199.077.306.078.176-.004.35-.033.517-.086a.916.916 0 0 1 1.216.85c.078 3.157 1.489 4.375 3.201 5.852l.733.64a8.73 8.73 0 0 0 4.503 2.288z"/></g></g></svg>