<svg xmlns="http://www.w3.org/2000/svg" width="53" height="53" viewBox="0 0 53 53"><g><g><g/><g><g><path fill="#4a8cff" d="M36.833 26.124l-1.2-.03-1.82 2.118c-.426.497-.862.998-1.34 1.478.336.506 1.854 1.794 3.2 2.935.595.505 1.16.985 1.596 1.379 3.416 1.33 6.754 2.692 9.342 4.322 1.984 1.245 3.01 2.187 3.813 3.695 2.122 3.99 1.634 3.454 2.497 7.539.267 3.6.004 3.418-2.519 3.375-1.82-.03-3.74-.047-5.736-.056l1.777-13.602c-3.192-1.47-5.426-2.754-9.196-4.072-4.624 9.354-19.353 7.728-20.936-.41-3.3 1.067-6.487 2.96-9.756 4.34L8.586 53c-2.092-.013-4.11-.035-6.03-.073-2.691-.052-2.717.069-2.45-2.74.298-3.143 1.299-5.793 2.567-8.174.802-1.509 1.828-2.447 3.813-3.696 2.613-1.642 5.995-3.021 9.45-4.361.31-.281.66-.583 1.018-.899 1.134-.994 2.406-2.114 2.924-2.753-.811-.713-1.492-1.53-2.17-2.343l-1.143-1.379-.233-.272c-.064-.078-.133-.156-.207-.242h-2.497C9.945 18.167 12.282 6.44 19.813 1.47 22.13-.06 23.79 0 26.5 0c3.105 0 4.688.1 7.35 1.863 3.92 2.598 6.327 7.093 7.34 13.334.212 3.108.345 8.485-1.824 10.992zm-1.79-1.068c2.062-7.17 1.057-13.762-4.58-19.407-1.001 3.242-3.244 5.922-7.066 7.897-1.828 1.357-3.592 3-5.3 4.884-.302-1.249.854-2.77 2.255-4.335-1.298.644-2.488 1.539-3.334 3.268-.979 2.005-.966 3.695-.642 5.874.094.63.224 1.232.392 1.806a.657.657 0 0 1 .28.195c.156.19.31.376.453.54.043.052.082.095.238.286l1.143 1.378c.87 1.05 1.755 2.1 2.872 2.866 1.065.73 2.377 1.215 4.17 1.21 1.653-.004 2.908-.47 3.939-1.162 1.082-.722 1.954-1.712 2.79-2.68l2.088-2.43a.66.66 0 0 1 .302-.19zm.164 8.675l-.276-.233c-1.26-1.068-2.661-2.256-3.291-3.047-.268.224-.552.44-.854.644-1.264.843-2.808 1.417-4.861 1.422-2.2.004-3.804-.592-5.107-1.483l-.039-.026c-.552.679-1.682 1.69-2.76 2.637 2.066 9.327 17.386 7.18 17.188.086z"/></g></g></g></g></svg>