<svg xmlns="http://www.w3.org/2000/svg" width="15" height="20" viewBox="0 0 15 20"><g><g><path fill="#fff" d="M13.125 2.5C14.16 2.5 15 3.34 15 4.375v13.75C15 19.16 14.16 20 13.125 20H1.875A1.875 1.875 0 0 1 0 18.125V4.375C0 3.34.84 2.5 1.875 2.5H5C5 1.121 6.121 0 7.5 0S10 1.121 10 2.5zm-6.563 0c0 .52.418.938.938.938s.938-.418.938-.938a.935.935 0 0 0-.938-.938.935.935 0 0 0-.938.938zm5.672 8.117a.47.47 0 0 0 .004-.664l-1.101-1.11a.47.47 0 0 0-.664-.003l-4.141 4.11-1.797-1.813a.47.47 0 0 0-.664-.004l-1.11 1.101a.47.47 0 0 0-.003.664l3.226 3.254a.47.47 0 0 0 .664.004z"/></g></g></svg>