<svg xmlns="http://www.w3.org/2000/svg" width="15" height="12" viewBox="0 0 15 12"><g><g><path fill="#fff" d="M10.204 7.516C9.61 7.978 8.546 9.013 7.5 9.003c-1.04.006-2.083-1.006-2.701-1.487C1.81 5.2.94 4.509.284 3.966.167 3.869 0 3.956 0 4.113V10.5c0 .828.63 1.5 1.406 1.5h12.188C14.37 12 15 11.328 15 10.5V4.11c0-.154-.17-.244-.284-.148-.656.544-1.524 1.238-4.512 3.554zM7.5 8c.68.013 1.658-.912 2.15-1.294 3.888-3.01 4.184-3.272 5.08-4.022.17-.14.27-.359.27-.59V1.5c0-.828-.63-1.5-1.406-1.5H1.406C.63 0 0 .672 0 1.5v.594c0 .231.1.447.27.59.896.747 1.192 1.013 5.08 4.022C5.842 7.087 6.82 8.012 7.5 8z"/></g></g></svg>