<svg xmlns="http://www.w3.org/2000/svg" width="16" height="19" viewBox="0 0 16 19"><g><g><path fill="#1a4568" d="M7.995 19c1.242 0 2.249-1.063 2.249-2.375H5.746C5.746 17.937 6.753 19 7.995 19zm7.572-5.556c-.679-.77-1.95-1.929-1.95-5.725 0-2.884-1.915-5.192-4.498-5.758v-.773C9.12.532 8.616 0 7.995 0c-.62 0-1.124.532-1.124 1.188v.773c-2.583.566-4.498 2.874-4.498 5.758 0 3.796-1.271 4.955-1.95 5.725-.211.24-.305.526-.303.806.004.609.456 1.188 1.129 1.188H14.74c.673 0 1.126-.58 1.129-1.188a1.194 1.194 0 0 0-.303-.806z"/></g></g></svg>