<svg xmlns="http://www.w3.org/2000/svg" width="15" height="18" viewBox="0 0 15 18"><g><g><path fill="#fff" d="M7.122 9.751a2.58 2.58 0 0 1-.929-.549l-.196-.171c-.464-.402-.846-.724-.867-1.574a.246.246 0 0 0-.16-.225.25.25 0 0 0-.169-.003.537.537 0 0 1-.147.023.172.172 0 0 1-.083-.02.53.53 0 0 1-.184-.325 2.173 2.173 0 0 1-.04-.733c.049-.093.187-.06.38.008l.179.064a.254.254 0 0 0 .327-.16.249.249 0 0 0 .005-.133 1.681 1.681 0 0 1 .02-.934c.103-.273.291-.505.537-.663.428-.297.93-.471 1.451-.504a3.3 3.3 0 0 0 1.839-.703c.349.178.631.461.807.809.222.461.303 1.143.123 2.19a.247.247 0 0 0 .204.293.257.257 0 0 0 .196-.048c.091-.073.2-.119.316-.134.03-.004.062 0 .091.01a.047.047 0 0 1 .018.027.427.427 0 0 1-.016.224l-.245.694c-.02.043-.012.059-.02.065-.007.006-.005-.012-.047-.012a.265.265 0 0 1-.067-.016.462.462 0 0 1-.093-.047.25.25 0 0 0-.345.07.253.253 0 0 0-.04.157c.07.832-.292 1.175-.796 1.651l-.158.146c-.088.081-.181.156-.279.225a2.06 2.06 0 0 1-1.18.342c-.145 0-.29-.014-.433-.044zm-.408 5.333a1.131 1.131 0 0 0-.143 1.43 1.14 1.14 0 0 0 1.172.483 1.145 1.145 0 0 0 .897-.891 1.126 1.126 0 0 0-.485-1.164 1.147 1.147 0 0 0-1.441.141zm2.63-5.49l.008-.01.156-.146c.531-.501.93-.879.962-1.682h.019a.532.532 0 0 0 .383-.095.567.567 0 0 0 .179-.293l.255-.72a.898.898 0 0 0 .012-.512.522.522 0 0 0-.26-.312.659.659 0 0 0-.363-.069.894.894 0 0 0-.12.018l.007-.06c1.545-1.387.72-4.528-1.292-4.633C7.593-1.06 5.337.249 3.375 2.659c1.033.31.808 1.952.885 2.899l.056.036c-.189.018-.34.125-.442.418a.278.278 0 0 0-.017.06c-.042.32-.026.645.046.96a.969.969 0 0 0 .425.625.664.664 0 0 0 .318.085c.092.848.5 1.213.993 1.633a7.445 7.445 0 0 1-.373.971c-.894.586-2.942.733-3.737 1.172C-.64 12.719.143 15.192.116 17.243c.043.464.304.717.816.757h.56l-.607-4.58a.547.547 0 0 1 .292-.583.558.558 0 0 1 .224-.06h6.22c-.117-.742-2.047-1.457-2.116-2.016a.237.237 0 0 0 .051-.05c.188-.323.337-.667.443-1.025a2.65 2.65 0 0 0 1.647.644c.497-.004.98-.167 1.377-.464l.07.102c.18.278.377.544.59.799-.042.635-1.72.643-1.907 2.004h5.963a.557.557 0 0 1 .514.415c.02.076.022.156.008.233L13.653 18h.555c.512-.04.773-.3.817-.757-.145-1.934.584-4.619-1.413-5.725-.784-.434-2.79-.586-3.703-1.148-.153-.19-.317-.431-.464-.643l-.096-.138z"/></g></g></svg>